<svg xmlns="http://www.w3.org/2000/svg" viewBox="0 0 200 200">
    <rect width="100%" height="100%" fill="#FFFFFF" rx="20%" ry="20%"/>
    <path d="M23.3 163.3c1.7 6.8 4.4 13 7.6 17.1 11.3 14.8 39.9 17.9 74.6 8.1 8.1-2.4 79.4-25.1 88.8-83.5 1.1-7.6 1.1-15.7.1-23.9-.2-1.9-.9-5.9-.9-5.9-3-22.9-24.5-42.6-24.7-42.8C143.2 8.1 100.5.9 62.6 14.6c-.5.2-56.2 20.3-56.5 63.7-.1 9.8 2.9 17.6 8.8 23.1 5.8 5.4 17.6 11.5 40.8 9.8l1.2-.1-.3 1.1c-.5 2.2-1.1 4.3-1.7 6.5-3.2 11.7-6.5 21-8.8 24.7 3 3.7 14.2 8.6 20.2 8.6 1.6 0 5.9-7.1 11.4-33.8.7-3.6 1.5-7.3 2.1-11.2l.1-.5.5-.2c10.6-3.6 19.6-6.6 27.3-9.2l.3-1.5-2.5-2.5c-6.9 2.3-16.3 5.4-23.3 7.5l-1.3.4.2-1.3c2.8-17.5 4.2-32.2 3.6-38.4-.4-3-3.5-6-8.4-8-3.9-1.7-10.8-3.7-12.8-2.1-.2.1-.7.6-.5 2l.4 1.9c1.8 14.7-2.3 36.8-4.8 48.7l-.1.7h-.7c-9.3 0-21.8-1.5-28.8-8.6-3.5-3.6-5.3-8.2-5.3-13.8.1-12.2 6.3-25.1 17.1-35.3 16-15.1 39.3-22.6 65.6-21.3 34.2 1.7 50.8 22.9 57.7 35.4.4.7 9.3 16.7 7 31.9-.7 10-3.9 25-15 38.8-2.8 3.5-9.8 9.7-10.1 9.9-3.6 3.1-7.8 6.1-12.4 8.9-20.4 12.5-46.5 19.2-67.7 19.2-15.5 0-28.3-3.6-34.4-11h-.1l-.2-.3-.4-.5.1-.1c-.8-1.4-2.5-4.6-2.7-6.9 0 0-.1-.1-.3-.1-.4 0-1.2.2-2.1.8-2.4 1.6-4.4 5.2-2.9 10.5.2.7.3 1 .4 1.3z"/>
    <path fill="#1185ED"
          d="M121.1 63.7l8.2 16.8 18.5 2.7-13.4 13 3.1 18.4-16.5-8.7-16.6 8.6 3.2-18.4L94.3 83l18.5-2.6z"/>
</svg>